<?xml version="1.0" encoding="utf-8" ?>
<svg baseProfile="full" height="1024" version="1.1" viewBox="0 -64 988 1024" width="988" xmlns="http://www.w3.org/2000/svg" xmlns:ev="http://www.w3.org/2001/xml-events" xmlns:xlink="http://www.w3.org/1999/xlink"><defs /><path d="M698 208Q693 209 688.5 209.0Q684 209 679 208Q674 207 668.0 205.0Q662 203 655 200L627 238Q633 242 640.0 245.5Q647 249 654 251Q655 251 656.0 251.5Q657 252 657 252Q659 253 659.5 254.5Q660 256 660 258Q661 259 660.5 260.5Q660 262 659 264Q657 266 655.0 267.0Q653 268 650 267Q641 264 633.0 260.5Q625 257 617 251L609 263Q608 264 607.0 264.5Q606 265 606 265Q605 265 604.0 265.0Q603 265 602 264Q601 264 600.5 263.0Q600 262 600 262Q600 261 600.5 260.0Q601 259 601 258L610 246Q605 241 600.5 236.0Q596 231 594 226Q591 220 590.0 215.0Q589 210 590 205Q590 200 592.0 195.0Q594 190 597 186Q600 181 604.5 178.0Q609 175 614 174Q619 173 624.0 173.0Q629 173 634 174Q639 175 645.0 177.0Q651 179 657 182L684 145Q676 139 667.5 135.5Q659 132 651 130Q650 130 649.0 129.5Q648 129 647 129Q646 127 645.0 126.0Q644 125 644 123Q644 122 644.0 120.5Q644 119 645 117Q646 116 647.0 115.5Q648 115 649 114Q651 114 652.0 114.0Q653 114 654 114Q665 117 675.0 121.0Q685 125 694 132L703 119Q704 118 704.5 117.5Q705 117 706 117Q707 117 707.5 117.5Q708 118 709 118Q710 119 710.5 119.5Q711 120 711 121Q711 122 711.0 123.0Q711 124 710 124L701 137Q707 141 711.0 146.0Q715 151 718 156Q720 161 721.5 166.0Q723 171 723 177Q722 182 720.5 186.5Q719 191 716 195Q712 201 707.5 204.0Q703 207 698 208ZM624 191Q620 190 616.5 192.0Q613 194 610 198Q608 201 607.0 205.5Q606 210 608 215Q609 219 612.0 223.5Q615 228 620 232L646 197Q640 194 634.5 192.5Q629 191 624 191ZM691 151 666 185Q673 188 678.5 189.5Q684 191 688 191Q692 192 695.5 190.5Q699 189 701 186Q707 177 704.5 168.5Q702 160 691 151ZM988 170V762Q988 783 973.5 797.5Q959 812 939 812H906V861H741V812H675V907Q675 929 659.5 944.5Q644 960 622 960H366Q344 960 328.5 944.5Q313 929 313 907V812H247V861H82V812H50Q29 812 14.5 797.5Q0 783 0 762V170Q0 149 14.5 134.5Q29 120 50 120H557Q563 113 569.5 107.0Q576 101 583 95L406 75Q401 75 397.0 71.0Q393 67 392 61Q392 55 395.5 50.5Q399 46 404 45L417 41L384 27Q380 25 377.5 21.0Q375 17 375 12Q375 7 378.0 3.0Q381 -1 386 -2L596 -63Q597 -64 598.0 -64.0Q599 -64 600 -64Q603 -64 605.0 -63.5Q607 -63 609 -61L634 -44L826 -9Q827 -9 827.5 -8.5Q828 -8 829 -8L907 -20Q911 -21 915.0 -19.5Q919 -18 921 -15L981 49Q981 49 981.0 49.0Q981 49 981 49Q981 49 981.0 49.0Q981 49 981 49Q982 50 982.5 51.5Q983 53 984 54Q984 55 984.0 55.5Q984 56 984 56Q984 57 984.5 57.5Q985 58 985 59Q985 59 985.0 59.5Q985 60 985 60Q985 60 984.5 61.0Q984 62 984 62Q984 63 984.0 64.0Q984 65 984 66Q983 66 983.0 66.5Q983 67 982 68Q982 68 981.5 69.0Q981 70 980 70Q980 71 980.0 71.0Q980 71 980 71Q979 72 979.0 72.0Q979 72 979 72Q978 73 977.0 73.0Q976 73 976 74Q975 74 974.5 74.5Q974 75 973 75Q973 75 973.0 75.0Q973 75 972 75L950 80Q946 82 926.5 92.0Q907 102 881 120H939Q959 120 973.5 134.5Q988 149 988 170ZM774 828H873V812H774ZM346 907Q346 915 352.0 921.0Q358 927 366 927H622Q631 927 636.5 921.0Q642 915 642 907V812H346V907ZM115 828H214V812H115ZM132 153H50Q43 153 38.0 158.0Q33 163 33 170V762Q33 769 38.0 774.0Q43 779 50 779H132V153ZM165 153V779H823V165Q785 201 750.5 251.0Q716 301 704 367Q703 371 701.0 374.0Q699 377 695 378Q692 380 688.0 379.5Q684 379 680 377L492 266Q487 263 485.0 257.5Q483 252 485 247Q486 245 497.5 216.0Q509 187 531 153H165ZM597 -31 437 16 467 28 588 -3Q589 -3 590.0 -3.0Q591 -3 592 -3Q592 -3 592.5 -3.0Q593 -3 593 -3L647 4L597 -31ZM695 -1 711 11 736 7 695 -1ZM593 29 495 54 631 69Q655 61 689.5 56.5Q724 52 761 50L593 29ZM904 12 820 25 928 39ZM884 78H869Q866 78 847.5 78.0Q829 78 807 79H808Q793 80 777.5 80.5Q762 81 747 82Q728 84 695.0 88.0Q662 92 635 101Q632 102 629.0 103.5Q626 105 624 106Q623 106 623.0 106.5Q623 107 622 107Q620 108 618.5 109.0Q617 110 615 112Q609 115 604.5 119.0Q600 123 595 127Q586 135 579.5 142.5Q573 150 571 153H570Q568 155 567.5 156.5Q567 158 567 158Q548 182 536.0 206.5Q524 231 519 245L678 339Q693 280 723.5 233.5Q754 187 790 153H789Q796 146 806.0 137.5Q816 129 827 120H828Q834 115 839.5 110.5Q845 106 851 102Q851 102 851.0 102.0Q851 102 851 102Q865 92 874.5 85.0Q884 78 884 78ZM856 153V779H939Q945 779 950.0 774.0Q955 769 955 762V170Q955 163 950.0 158.0Q945 153 939 153H856Z" fill="black" transform="scale(1,-1) translate(0, -896)" /></svg>