<?xml version="1.0" encoding="utf-8" ?>
<svg baseProfile="full" height="1024" version="1.1" viewBox="0 -64 798 1024" width="798" xmlns="http://www.w3.org/2000/svg" xmlns:ev="http://www.w3.org/2001/xml-events" xmlns:xlink="http://www.w3.org/1999/xlink"><defs /><path d="M611 -64H252Q244 -64 239.0 -59.0Q234 -54 234 -47Q234 -40 239.0 -35.0Q244 -30 252 -30H611Q618 -30 623.0 -35.0Q628 -40 628 -47Q628 -54 623.0 -59.0Q618 -64 611 -64ZM798 595Q798 642 786.5 685.5Q775 729 753.5 767.5Q732 806 703.0 838.5Q674 871 638 896L637 897Q637 897 637.5 897.5Q638 898 638 898L634 900Q628 904 622.0 907.5Q616 911 610 915Q608 916 606.0 917.0Q604 918 601 919Q597 922 592.0 924.5Q587 927 582 929Q579 930 576.0 931.0Q573 932 571 933Q566 935 560.5 937.0Q555 939 550 941Q547 942 545.0 942.5Q543 943 541 944Q533 946 525.5 948.0Q518 950 511 952Q508 952 506.0 952.5Q504 953 502 954Q496 955 489.5 956.0Q483 957 477 957Q475 958 472.5 958.0Q470 958 468 958Q459 959 451.0 959.5Q443 960 434 960Q426 960 417.5 959.5Q409 959 401 958Q399 958 396.5 958.0Q394 958 392 957Q385 957 379.0 956.0Q373 955 366 953Q364 953 362.0 952.5Q360 952 358 952Q342 948 326.0 943.5Q310 939 295 932Q293 932 291.5 931.0Q290 930 289 930Q282 927 276.0 924.0Q270 921 264 917Q263 917 261.5 916.0Q260 915 259 915Q251 911 244.0 906.5Q237 902 229 897L222 892V891Q213 885 205.0 878.5Q197 872 189 865Q189 865 169.0 885.5Q149 906 141 907Q135 908 131.0 905.0Q127 902 127 902Q96 872 72.5 836.0Q49 800 33.0 761.0Q17 722 8.5 680.0Q0 638 0 595Q0 551 8.0 509.0Q16 467 32.5 428.0Q49 389 72.5 353.5Q96 318 127 287Q156 258 189.0 235.5Q222 213 258.5 196.5Q295 180 334.5 171.0Q374 162 416 161V-47H450V161Q492 162 531.5 171.0Q571 180 608.0 196.5Q645 213 678.5 235.5Q712 258 741 287Q741 287 744.5 292.5Q748 298 745 306Q742 313 722.5 331.5Q703 350 703 350Q748 398 773.0 461.0Q798 524 798 595ZM256 873Q268 880 280.0 886.5Q292 893 304 898Q305 899 306.5 899.5Q308 900 309 900Q315 903 321.0 905.0Q327 907 333 909Q334 910 335.5 910.0Q337 910 338 911Q345 913 352.0 915.0Q359 917 367 918Q368 918 369.0 918.5Q370 919 371 919Q378 920 384.0 921.0Q390 922 396 923Q398 923 400.0 923.5Q402 924 404 924Q412 924 419.5 924.5Q427 925 434 925Q442 925 449.5 924.5Q457 924 464 924Q466 924 468.0 923.5Q470 923 472 923Q479 922 486.0 921.0Q493 920 500 919Q501 918 502.5 918.0Q504 918 505 917Q511 916 516.5 914.5Q522 913 528 912Q530 911 532.0 910.5Q534 910 536 909Q543 907 549.0 904.5Q555 902 561 900Q563 899 564.5 898.5Q566 898 568 897Q573 895 577.5 892.5Q582 890 587 888Q589 886 591.5 885.0Q594 884 596 883Q597 882 598.0 881.5Q599 881 600 880Q559 866 532.5 846.0Q506 826 480 792Q478 790 476.5 787.5Q475 785 475 783Q473 784 471.5 785.5Q470 787 468 788Q459 794 447.0 794.0Q435 794 420 787H417Q399 785 387.0 780.0Q375 775 374 752Q374 740 379.5 730.0Q385 720 395 714Q397 713 399.0 712.0Q401 711 403 710Q403 710 403.0 709.5Q403 709 404 708L408 702Q401 704 395.0 705.0Q389 706 382 707Q375 708 367.5 709.5Q360 711 352 714Q324 725 303.0 764.0Q282 803 267 837Q264 844 261.5 850.0Q259 856 256 863Q256 865 256.0 867.5Q256 870 256 873ZM502 492Q477 512 468.5 539.0Q460 566 470 591Q476 604 471.0 617.0Q466 630 454 637Q453 639 452.5 642.0Q452 645 452 647Q451 654 449.5 662.0Q448 670 444 677Q446 676 448.5 674.5Q451 673 454 672Q456 672 457.0 671.0Q458 670 458 669Q461 658 468.5 650.0Q476 642 486 639Q495 636 505.0 638.0Q515 640 524 646Q526 648 528.5 648.0Q531 648 541 643Q548 639 556.5 636.0Q565 633 577 631Q584 624 589.5 615.0Q595 606 601 597Q609 583 618.5 570.0Q628 557 642 549Q647 547 644.0 531.5Q641 516 630 488Q629 485 628.5 482.5Q628 480 627 478Q613 468 604.0 456.0Q595 444 587 433Q580 422 572.0 412.0Q564 402 553 393Q536 378 520.5 369.0Q505 360 488 354Q506 387 518.5 427.5Q531 468 502 492ZM426 750 414 743Q414 743 413.0 743.5Q412 744 411 745Q410 746 409.5 747.5Q409 749 409 750Q409 750 409.0 750.5Q409 751 409 751Q411 751 414.5 751.5Q418 752 421 752L429 753L432 755Q442 759 445.5 759.0Q449 759 449 759Q449 759 451.0 755.0Q453 751 452 739V734Q450 735 446.5 735.5Q443 736 439 736Q439 737 438.0 738.0Q437 739 436 740L426 750ZM434 691Q432 692 430.0 693.5Q428 695 426 695Q424 697 421.5 698.0Q419 699 417 700H422Q424 701 426.5 701.0Q429 701 431 701Q431 699 432.0 696.0Q433 693 434 691ZM224 849Q224 849 224.0 848.5Q224 848 225 847Q227 842 230.0 835.5Q233 829 235 823Q253 782 277.5 739.0Q302 696 340 681Q350 677 359.5 675.5Q369 674 377 673Q387 671 395.0 669.5Q403 668 411 664Q411 664 411.5 663.5Q412 663 412 664Q415 660 416.0 654.0Q417 648 418 643Q419 634 422.0 623.5Q425 613 435 608Q437 607 438.0 606.0Q439 605 438 604Q424 569 435.0 531.0Q446 493 480 465Q485 460 485.0 441.0Q485 422 457 371Q452 362 453.0 351.0Q454 340 461 331Q466 325 473.5 321.5Q481 318 488 318Q491 318 494.0 319.0Q497 320 500 321Q520 328 538.0 338.5Q556 349 576 366Q589 378 598.5 390.0Q608 402 616 413Q624 424 631.5 434.5Q639 445 652 453L657 458L658 463Q659 465 660.5 468.5Q662 472 663 476Q672 499 679.0 532.5Q686 566 658 580Q650 584 644.0 593.5Q638 603 631 615Q625 624 618.0 635.0Q611 646 602 655Q598 659 592.5 662.0Q587 665 581 665Q574 666 568.0 668.5Q562 671 556 674Q546 679 532.5 682.5Q519 686 503 674Q502 673 500.0 672.0Q498 671 497 672Q495 672 494.0 674.0Q493 676 492 679Q489 689 482.5 695.0Q476 701 466 705Q467 709 467.0 713.5Q467 718 465 722L467 721Q479 720 487.5 722.5Q496 725 502 731Q508 738 509.0 747.5Q510 757 507 769Q507 769 507.0 769.5Q507 770 507 771Q532 803 555.5 819.5Q579 836 619 850Q623 851 626.5 853.5Q630 856 632 859Q693 814 729.0 745.0Q765 676 765 595Q765 527 739.0 466.5Q713 406 668.0 361.5Q623 317 563.0 291.0Q503 265 434 265Q366 265 306.0 291.0Q246 317 201.0 361.5Q156 406 130.0 466.5Q104 527 104 595Q104 671 136.5 737.5Q169 804 224 849ZM705 300Q646 246 573.5 220.0Q501 194 426.5 195.5Q352 197 280.5 226.0Q209 255 152 312Q95 369 65.0 442.0Q35 515 35 595Q35 671 62.0 740.5Q89 810 140 865L165 840Q120 791 94.5 728.5Q69 666 69 595Q69 519 98.0 452.5Q127 386 176.5 336.5Q226 287 292.5 258.5Q359 230 434 230Q505 230 568.0 255.5Q631 281 680 325L705 300Z" fill="black" transform="scale(1,-1) translate(0, -896)" /></svg>