<?xml version="1.0" encoding="utf-8" ?>
<svg baseProfile="full" height="1024" version="1.1" viewBox="4 -64 1132 1024" width="1132" xmlns="http://www.w3.org/2000/svg" xmlns:ev="http://www.w3.org/2001/xml-events" xmlns:xlink="http://www.w3.org/1999/xlink"><defs /><path d="M1010 188Q958 188 921.0 151.0Q884 114 884 62Q884 10 921.0 -27.0Q958 -64 1010 -64Q1062 -64 1099.0 -27.0Q1136 10 1136 62Q1136 114 1099.0 151.0Q1062 188 1010 188ZM1010 -35Q970 -35 941.5 -6.5Q913 22 913 62Q913 102 941.5 130.5Q970 159 1010 159Q1050 159 1078.5 130.5Q1107 102 1107 62Q1107 22 1078.5 -6.5Q1050 -35 1010 -35ZM856 215 805 243 841 279 865 243Q868 238 874.0 234.5Q880 231 887 230Q889 229 891.0 229.0Q893 229 895 229H985Q998 229 1007.5 238.0Q1017 247 1017 261Q1017 274 1007.5 283.0Q998 292 985 292H915L879 346Q882 345 886.0 344.5Q890 344 894 344Q916 344 932.0 360.0Q948 376 948 398Q948 421 932.0 436.5Q916 452 894 452Q871 452 855.5 436.5Q840 421 840 398Q840 395 840.0 391.5Q840 388 841 385Q838 386 834.0 387.0Q830 388 826 388Q825 388 824.0 388.0Q823 388 823 388V572L874 524Q876 522 879.0 521.0Q882 520 885 520Q888 520 891.0 521.0Q894 522 896 525Q900 529 900.0 535.5Q900 542 895 547L760 672V877H605V816L450 960L5 547Q0 542 0.0 535.5Q0 529 4 525Q9 520 15.0 520.0Q21 520 26 524L78 572V54H537Q540 5 576.0 -29.5Q612 -64 662 -64Q713 -64 749.0 -29.5Q785 5 788 54H797Q797 38 808.5 27.0Q820 16 836 16Q852 16 863.0 27.0Q874 38 874 54V180V182Q874 193 869.0 202.0Q864 211 856 215ZM894 424Q904 424 911.5 416.5Q919 409 919 398Q919 388 911.5 380.5Q904 373 894 373Q883 373 875.5 380.5Q868 388 868 398Q868 409 875.5 416.5Q883 424 894 424ZM636 846H729V701L636 787ZM543 103Q542 98 540.5 94.0Q539 90 539 85H357V412Q357 418 361.0 422.5Q365 427 371 427H529Q535 427 539.0 422.5Q543 418 543 412V103ZM759 54Q756 17 728.5 -9.0Q701 -35 662 -35Q624 -35 596.5 -9.0Q569 17 565 54Q565 56 565.0 58.0Q565 60 565 62Q565 73 567.5 83.5Q570 94 574 103Q586 128 609.5 143.5Q633 159 662 159Q697 159 723.0 138.0Q749 117 757 85Q758 80 759.0 74.0Q760 68 760 62Q760 60 760.0 58.0Q760 56 759 54ZM792 85H786Q778 129 743.5 158.5Q709 188 662 188Q637 188 614.0 178.5Q591 169 574 152V412Q574 431 561.0 444.5Q548 458 529 458H371Q353 458 339.5 444.5Q326 431 326 412V85H109V601L450 918L792 601V375Q791 374 790.0 373.0Q789 372 788 372L695 280Q680 265 679.0 244.5Q678 224 691 210L699 203L702 200Q706 198 709.5 196.0Q713 194 716 193L792 152V85ZM836 45Q832 45 829.0 47.5Q826 50 826 54V166L823 168L729 218Q726 220 723.5 221.0Q721 222 718 224L712 231Q707 236 708.0 244.5Q709 253 716 259L808 351Q811 354 815.0 356.0Q819 358 823 359Q823 359 824.0 359.0Q825 359 826 359Q828 359 831.0 358.0Q834 357 837 355L845 347Q846 346 846.5 344.5Q847 343 848 342V340L899 263H985Q986 263 987.0 262.5Q988 262 988 261Q988 259 987.0 258.5Q986 258 985 258H894H891Q890 258 889.5 258.5Q889 259 889 259L846 324L757 236L842 190Q844 189 844.5 187.0Q845 185 845 182V54Q845 50 842.5 47.5Q840 45 836 45Z" fill="black" transform="scale(1,-1) translate(0, -896)" /></svg>