<?xml version="1.0" encoding="utf-8" ?>
<svg baseProfile="full" height="1024" version="1.1" viewBox="0 -64 1527 1024" width="1527" xmlns="http://www.w3.org/2000/svg" xmlns:ev="http://www.w3.org/2001/xml-events" xmlns:xlink="http://www.w3.org/1999/xlink"><defs /><path d="M1515 168Q1521 176 1524.0 184.0Q1527 192 1527 200Q1527 209 1523.0 217.0Q1519 225 1512 232Q1519 240 1522.0 249.0Q1525 258 1524 268Q1522 289 1500.0 304.0Q1478 319 1445 328Q1473 348 1487.5 369.0Q1502 390 1497 410Q1489 440 1448.5 450.0Q1408 460 1366 461Q1367 461 1367.5 461.5Q1368 462 1368 463Q1406 498 1420.0 527.5Q1434 557 1424 578Q1416 593 1398.5 600.0Q1381 607 1354 607Q1328 607 1295.0 600.5Q1262 594 1224 582Q1233 594 1241.0 605.0Q1249 616 1256 627Q1283 671 1289.0 703.0Q1295 735 1280 753Q1273 760 1262.5 764.0Q1252 768 1239 768Q1213 768 1176.5 753.5Q1140 739 1098 713Q1112 782 1107.5 834.5Q1103 887 1072 899Q1069 900 1065.0 901.0Q1061 902 1057 902Q1030 902 990.5 864.5Q951 827 908 748Q911 818 905.5 886.5Q900 955 872 960Q871 960 870.0 960.0Q869 960 868 960Q857 960 842.5 943.5Q828 927 810 862Q799 821 789.5 768.5Q780 716 773 659Q765 702 753.0 754.5Q741 807 725.0 853.0Q709 899 690.5 929.5Q672 960 652 960Q651 960 650.0 960.0Q649 960 648 960Q616 954 611.5 888.0Q607 822 613 753Q571 826 533.0 860.5Q495 895 470 895Q466 895 462.0 894.5Q458 894 454 892Q424 880 419.5 828.0Q415 776 429 706Q387 733 350.0 747.5Q313 762 288 762Q274 762 264.0 758.0Q254 754 247 746Q232 729 238.0 697.0Q244 665 271 620Q278 610 286.0 598.5Q294 587 302 576Q265 588 232.0 594.5Q199 601 173 601Q146 601 128.5 593.5Q111 586 103 572Q92 551 106.5 521.5Q121 492 158 456Q159 456 159.5 455.5Q160 455 160 454Q119 454 78.0 444.0Q37 434 30 403Q25 383 39.5 362.0Q54 341 82 321Q49 312 27.0 297.5Q5 283 3 261Q2 252 5.0 243.0Q8 234 15 225Q8 218 4.0 210.0Q0 202 0 194Q0 185 3.0 177.0Q6 169 12 162Q7 155 4.0 148.0Q1 141 1 133Q1 126 3.0 119.5Q5 113 9 107Q5 101 3.0 94.5Q1 88 1 81Q1 76 2.5 71.0Q4 66 6 61Q4 57 2.5 52.0Q1 47 1 41Q1 16 30.0 -4.0Q59 -24 105.5 -37.0Q152 -50 210.5 -57.0Q269 -64 328 -64Q388 -64 446.5 -57.0Q505 -50 551.5 -37.0Q598 -24 627.0 -4.0Q656 16 656 41Q656 49 653.5 56.0Q651 63 646 69Q651 76 653.5 83.5Q656 91 656 99Q656 103 655.0 107.0Q654 111 652 115Q654 119 655.0 123.5Q656 128 656 133Q656 138 654.5 143.0Q653 148 651 153Q653 157 654.0 161.0Q655 165 655 169Q655 173 654.5 177.0Q654 181 652 184Q653 186 653.5 188.0Q654 190 654 192Q655 199 653.5 205.5Q652 212 648 219Q655 224 659.5 230.5Q664 237 666 244Q666 247 666.5 249.5Q667 252 667 255Q674 258 679.0 263.0Q684 268 687 274Q688 276 688.5 277.5Q689 279 690 281Q691 281 692.0 281.5Q693 282 694 282Q699 285 703.5 288.0Q708 291 712 296Q719 298 725.0 301.0Q731 304 736 309Q737 311 738.0 312.5Q739 314 740 315Q743 314 745.5 313.5Q748 313 751 313Q752 313 753.0 313.0Q754 313 755 313Q760 314 765.5 317.5Q771 321 776 330Q780 321 785.5 315.5Q791 310 798 309Q798 309 798.5 309.0Q799 309 800 309Q803 307 806.5 305.5Q810 304 815 303Q818 298 822.5 294.5Q827 291 833 289Q834 289 835.0 288.5Q836 288 837 288Q838 286 838.5 284.0Q839 282 840 281Q843 275 848.0 270.0Q853 265 860 261Q860 259 860.5 256.0Q861 253 861 251Q863 243 867.5 237.0Q872 231 879 226Q875 219 873.5 212.0Q872 205 873 199Q873 197 873.5 195.0Q874 193 874 191Q873 187 872.5 183.5Q872 180 872 176Q872 171 873.0 167.0Q874 163 876 160Q874 155 872.5 150.0Q871 145 871 139Q871 136 871.5 132.5Q872 129 873 125Q873 123 872.0 120.0Q871 117 871 115Q871 105 874.5 96.5Q878 88 885 80Q878 73 874.5 64.5Q871 56 871 48Q871 22 900.0 2.5Q929 -17 975.5 -30.5Q1022 -44 1080.5 -50.5Q1139 -57 1198 -57Q1258 -57 1316.5 -50.5Q1375 -44 1421.5 -30.5Q1468 -17 1497.0 2.5Q1526 22 1526 48Q1526 52 1525.0 56.0Q1524 60 1522 64Q1524 68 1524.5 71.0Q1525 74 1526 78Q1526 86 1523.0 94.0Q1520 102 1514 110Q1520 117 1523.0 124.0Q1526 131 1526 139Q1526 147 1523.0 154.5Q1520 162 1515 168ZM909 279Q905 279 901.5 279.0Q898 279 895 279Q902 289 916.5 301.5Q931 314 955 328Q994 351 1047.0 371.0Q1100 391 1160 406Q1192 414 1223.0 420.0Q1254 426 1283 429Q1258 411 1228.5 393.5Q1199 376 1167 360Q1146 349 1125.0 339.5Q1104 330 1083 322Q1050 315 1020.5 306.0Q991 297 966 287Q964 286 962.0 285.0Q960 284 958 284Q945 281 932.5 280.0Q920 279 909 279ZM851 493Q847 487 842.5 481.0Q838 475 833 469Q839 497 847.5 526.5Q856 556 867 587Q863 561 859.0 537.5Q855 514 851 493ZM836 424Q833 411 829.5 400.0Q826 389 823 380Q823 385 823.0 390.5Q823 396 824 402Q826 407 829.0 412.5Q832 418 836 424ZM830 330Q836 341 843.5 359.5Q851 378 859 407Q864 424 868.5 442.5Q873 461 877 481Q898 509 925.5 537.0Q953 565 983 593Q1001 609 1019.0 623.5Q1037 638 1055 651Q1049 631 1041.5 609.5Q1034 588 1025 565Q1014 536 1002.0 510.0Q990 484 977 461Q954 445 933.0 428.5Q912 412 895 396Q875 378 862.0 360.5Q849 343 842 328Q839 328 836.5 328.0Q834 328 832 328Q831 328 831.0 328.0Q831 328 831 328Q830 328 830.0 328.5Q830 329 830 330ZM900 347Q894 344 889.0 342.0Q884 340 879 338Q885 346 893.5 356.0Q902 366 914 377Q920 383 927.0 389.0Q934 395 942 401Q931 385 920.5 371.0Q910 357 900 347ZM999 443Q1021 457 1045.5 471.5Q1070 486 1096 499Q1104 503 1112.5 507.0Q1121 511 1129 515Q1119 505 1108.5 495.5Q1098 486 1088 476Q1056 448 1023.5 423.5Q991 399 960 380Q970 393 979.5 409.0Q989 425 999 443ZM870 291Q870 291 869.5 290.0Q869 289 868 288Q868 288 867.5 288.5Q867 289 866 290Q867 290 868.0 290.5Q869 291 870 291ZM1500 199Q1500 196 1499.0 193.0Q1498 190 1495 186Q1490 190 1484.0 193.0Q1478 196 1471 200Q1477 203 1482.5 206.5Q1488 210 1492 213Q1496 210 1498.0 206.5Q1500 203 1500 199ZM1499 139Q1499 137 1498.0 134.0Q1497 131 1495 128Q1491 131 1486.5 134.0Q1482 137 1477 139Q1482 142 1486.5 145.0Q1491 148 1495 150Q1497 148 1498.0 145.0Q1499 142 1499 139ZM924 207Q927 206 930.0 205.5Q933 205 936 204Q928 201 920.5 197.0Q913 193 906 189Q906 190 905.5 190.0Q905 190 905 191Q908 195 912.5 198.5Q917 202 924 207ZM1153 217Q1164 217 1175.5 217.5Q1187 218 1198 218Q1260 218 1310.5 212.0Q1361 206 1399 196Q1388 192 1376.5 188.5Q1365 185 1352 182Q1318 189 1280.0 194.0Q1242 199 1204 201Q1189 202 1174.0 202.5Q1159 203 1144 203Q1085 203 1029.0 195.5Q973 188 933 173Q933 173 933.0 173.0Q933 173 933 173Q947 181 968.0 187.5Q989 194 1015 200Q1046 201 1081.0 205.0Q1116 209 1153 217ZM904 126Q905 126 905.5 127.0Q906 128 907 129Q914 125 922.0 121.0Q930 117 939 114Q936 112 933.0 111.0Q930 110 927 108Q919 113 913.5 117.0Q908 121 904 126ZM1174 153Q1161 152 1147.5 151.5Q1134 151 1121 150Q1116 150 1111.0 150.0Q1106 150 1101 150Q1101 150 1101.0 150.0Q1101 150 1101 150Q1065 150 1034.5 152.5Q1004 155 981 160Q1012 167 1053.0 171.5Q1094 176 1144 176Q1158 176 1173.0 175.5Q1188 175 1203 174Q1225 173 1245.0 171.0Q1265 169 1284 167Q1266 163 1246.5 160.5Q1227 158 1207 156Q1199 155 1190.5 154.0Q1182 153 1174 153ZM936 144Q948 140 962.5 136.5Q977 133 992 131Q990 130 987.5 129.5Q985 129 983 128Q969 132 957.0 136.0Q945 140 936 144ZM1119 123Q1133 123 1147.0 124.0Q1161 125 1176 126Q1182 126 1187.5 126.0Q1193 126 1198 126Q1230 126 1258.5 124.5Q1287 123 1313 120Q1288 116 1260.5 113.5Q1233 111 1202 110Q1192 109 1182.0 109.0Q1172 109 1163 109Q1131 109 1103.5 110.5Q1076 112 1052 115Q1067 118 1084.0 120.0Q1101 122 1119 123ZM1317 146Q1327 148 1335.5 150.0Q1344 152 1353 154Q1368 151 1381.5 147.5Q1395 144 1407 140Q1402 139 1397.0 137.5Q1392 136 1387 135Q1371 138 1353.5 141.0Q1336 144 1317 146ZM1402 169Q1412 173 1421.5 176.5Q1431 180 1440 184Q1450 180 1458.5 176.0Q1467 172 1474 168Q1468 165 1461.0 161.5Q1454 158 1446 154Q1436 158 1425.0 162.0Q1414 166 1402 169ZM983 100Q1022 91 1069.0 86.5Q1116 82 1163 82Q1173 82 1183.0 82.0Q1193 82 1203 83Q1251 85 1298.5 91.0Q1346 97 1387 107Q1401 104 1413.0 100.5Q1425 97 1436 94Q1397 80 1336.5 70.5Q1276 61 1198 61Q1121 61 1060.5 70.5Q1000 80 961 94Q966 95 971.5 97.0Q977 99 983 100ZM1436 122Q1438 123 1440.5 123.5Q1443 124 1446 125Q1454 122 1461.0 118.0Q1468 114 1473 110Q1473 110 1472.0 109.5Q1471 109 1470 108Q1462 112 1453.5 115.5Q1445 119 1436 122ZM1438 212Q1402 225 1355.0 232.5Q1308 240 1257 243Q1273 248 1288.0 253.0Q1303 258 1318 264Q1370 259 1408.5 249.5Q1447 240 1469 229Q1463 225 1455.0 221.0Q1447 217 1438 212ZM1198 254Q1186 251 1173.5 248.5Q1161 246 1149 243Q1113 242 1078.5 238.0Q1044 234 1013 227Q1009 227 1005.5 227.0Q1002 227 998 227Q998 227 998.0 227.0Q998 227 998 227Q990 227 982.5 227.0Q975 227 968 228Q971 229 973.5 230.0Q976 231 979 232Q1022 246 1078.5 255.0Q1135 264 1197 266Q1206 266 1216.0 266.5Q1226 267 1236 267Q1238 267 1239.5 267.0Q1241 267 1243 267Q1232 264 1221.0 260.5Q1210 257 1198 254ZM984 261Q980 260 977.0 259.0Q974 258 971 257Q964 255 958.0 253.0Q952 251 946 248Q951 251 955.5 253.0Q960 255 966 258Q970 258 974.5 259.0Q979 260 984 261ZM1236 294Q1226 294 1216.0 293.5Q1206 293 1196 293Q1148 291 1104.0 285.5Q1060 280 1022 271Q1038 276 1055.5 282.5Q1073 289 1092 296Q1115 301 1139.5 304.5Q1164 308 1190 311Q1217 314 1244.0 315.5Q1271 317 1296 317Q1316 317 1333.5 316.0Q1351 315 1367 314Q1355 308 1341.5 302.0Q1328 296 1314 291Q1295 292 1275.5 293.0Q1256 294 1236 294ZM1198 34Q1275 34 1349.0 45.5Q1423 57 1470 79Q1476 75 1481.5 71.5Q1487 68 1490 64Q1471 45 1409.0 30.5Q1347 16 1253 16Q1238 16 1223.5 16.5Q1209 17 1194 18Q1102 23 1036.0 39.5Q970 56 934 75Q982 55 1053.5 44.5Q1125 34 1198 34ZM1497 265Q1498 261 1496.0 257.0Q1494 253 1491 248Q1469 261 1437.0 270.0Q1405 279 1368 285Q1380 290 1391.0 296.0Q1402 302 1413 307Q1453 300 1474.5 288.5Q1496 277 1497 265ZM1360 434Q1417 434 1442.5 424.0Q1468 414 1471 403Q1474 392 1457.5 374.0Q1441 356 1408 336Q1382 340 1353.5 342.0Q1325 344 1296 344Q1270 344 1242.5 342.5Q1215 341 1187 338Q1186 338 1185.0 338.0Q1184 338 1183 337Q1226 360 1264.5 384.0Q1303 408 1334 433Q1341 434 1347.5 434.0Q1354 434 1360 434ZM1354 580Q1372 580 1384.0 576.5Q1396 573 1400 566Q1404 557 1394.0 536.0Q1384 515 1350 482Q1344 477 1337.5 471.0Q1331 465 1324 460Q1285 457 1241.5 450.5Q1198 444 1154 432Q1120 424 1087.5 413.5Q1055 403 1026 392Q1046 406 1066.0 422.0Q1086 438 1106 456Q1129 477 1150.5 498.5Q1172 520 1191 542Q1239 560 1281.0 570.0Q1323 580 1354 580ZM1239 741Q1246 741 1251.5 739.5Q1257 738 1259 735Q1266 727 1262.0 704.0Q1258 681 1233 641Q1221 623 1206.5 603.5Q1192 584 1175 564Q1153 556 1130.0 545.5Q1107 535 1084 523Q1068 515 1052.5 506.5Q1037 498 1022 489Q1029 504 1036.0 521.0Q1043 538 1050 555Q1062 585 1072.0 615.5Q1082 646 1089 675Q1135 706 1174.5 723.5Q1214 741 1239 741ZM1057 875Q1058 875 1059.5 874.5Q1061 874 1063 874Q1079 867 1082.0 818.5Q1085 770 1066 692Q1041 675 1015.5 655.0Q990 635 965 613Q944 593 924.0 573.5Q904 554 886 534Q890 556 893.0 578.5Q896 601 898 625Q899 630 900.5 644.0Q902 658 903 678Q946 770 989.0 822.5Q1032 875 1057 875ZM867 932Q870 927 875.0 907.5Q880 888 882 839Q883 806 882.0 767.0Q881 728 877 686Q871 673 865.5 660.0Q860 647 855 632Q831 573 816.5 516.0Q802 459 797 412Q797 412 797.0 411.0Q797 410 797 410Q796 407 794.5 404.0Q793 401 792 399Q793 405 793.0 411.0Q793 417 793 424Q794 448 793.0 476.5Q792 505 789 535Q790 561 792.5 587.5Q795 614 798 641Q812 767 833.0 843.0Q854 919 867 932ZM464 867Q466 868 467.0 868.0Q468 868 470 868Q494 868 536.5 817.5Q579 767 620 678Q623 656 625.5 641.5Q628 627 628 624Q632 601 637.5 573.5Q643 546 650 518Q630 540 608.0 562.0Q586 584 562 606Q536 629 511.0 649.0Q486 669 461 686Q442 764 445.0 812.5Q448 861 464 867ZM28 133Q28 136 29.0 138.5Q30 141 32 144Q35 142 37.5 140.0Q40 138 43 137Q39 134 35.5 132.0Q32 130 29 127Q28 129 28.0 130.5Q28 132 28 133ZM27 193Q27 196 29.0 199.5Q31 203 34 207Q39 203 44.5 199.5Q50 196 56 193Q49 190 43.0 186.5Q37 183 32 180Q29 183 28.0 186.5Q27 190 27 193ZM435 289Q453 282 471.0 276.0Q489 270 505 265Q467 274 422.5 279.5Q378 285 331 287Q321 287 311.0 287.0Q301 287 291 287Q271 287 251.5 286.5Q232 286 213 284Q198 290 185.0 295.5Q172 301 160 307Q176 309 193.5 309.5Q211 310 231 310Q256 310 283.0 308.5Q310 307 337 305Q362 302 387.0 298.0Q412 294 435 289ZM561 251Q566 249 571.0 246.5Q576 244 580 242Q575 244 569.0 246.5Q563 249 556 251Q553 252 550.0 253.0Q547 254 543 255Q548 254 552.5 253.0Q557 252 561 251ZM291 260Q300 260 310.0 260.0Q320 260 330 260Q392 257 448.0 248.0Q504 239 548 225Q550 224 553.0 223.0Q556 222 559 221Q552 221 544.5 220.5Q537 220 529 220Q525 220 521.0 220.0Q517 220 513 221Q483 227 448.5 231.0Q414 235 378 237Q366 239 353.5 242.0Q341 245 329 248Q317 251 305.5 254.0Q294 257 284 260Q285 260 287.0 260.0Q289 260 291 260ZM622 184Q622 184 621.5 183.5Q621 183 620 183Q614 187 606.5 190.5Q599 194 591 198Q594 198 597.0 198.5Q600 199 603 200Q610 196 614.5 192.0Q619 188 622 184ZM619 115Q615 112 610.5 108.5Q606 105 600 102Q597 103 594.0 104.5Q591 106 588 107Q595 110 601.5 113.0Q608 116 614 119Q615 118 616.5 117.0Q618 116 619 115ZM328 211Q340 211 351.5 211.0Q363 211 374 210Q411 203 446.0 198.5Q481 194 512 194Q538 188 558.5 181.0Q579 174 594 167Q592 166 590.0 165.0Q588 164 585 163Q541 180 479.5 187.5Q418 195 356 195Q348 195 340.5 195.0Q333 195 326 195Q283 194 242.5 189.5Q202 185 166 178Q156 181 146.5 184.0Q137 187 128 190Q166 199 216.5 205.0Q267 211 328 211ZM328 119Q334 119 339.5 119.0Q345 119 351 119Q365 118 379.5 117.5Q394 117 408 116Q426 115 442.5 113.0Q459 111 475 109Q451 106 423.0 104.0Q395 102 364 102Q354 102 344.0 102.5Q334 103 325 103Q294 104 266.5 106.5Q239 109 214 113Q240 116 268.5 117.5Q297 119 328 119ZM406 143Q393 144 379.5 145.0Q366 146 353 146Q344 147 336.0 147.5Q328 148 320 149Q297 151 276.0 154.5Q255 158 236 161Q257 164 280.0 165.5Q303 167 326 168Q334 168 341.5 168.0Q349 168 356 168Q410 168 454.5 163.5Q499 159 532 151Q510 147 483.5 145.0Q457 143 426 143Q421 143 416.0 143.0Q411 143 406 143ZM116 166Q112 165 108.0 163.5Q104 162 100 161Q93 159 86.0 156.5Q79 154 73 151Q67 154 62.0 156.5Q57 159 53 162Q60 166 68.5 170.0Q77 174 87 177Q94 174 101.0 171.5Q108 169 116 166ZM165 150Q176 147 187.0 144.5Q198 142 209 139Q191 137 173.5 134.5Q156 132 140 128Q132 130 125.0 132.0Q118 134 111 136Q124 140 137.5 143.5Q151 147 165 150ZM91 115Q82 112 73.5 109.0Q65 106 57 102Q54 103 52.0 104.5Q50 106 48 108Q53 111 59.0 114.5Q65 118 73 122Q78 120 82.0 118.5Q86 117 91 115ZM139 101Q181 90 228.5 84.0Q276 78 324 76Q334 76 344.0 75.5Q354 75 364 75Q411 75 457.5 80.0Q504 85 544 94Q550 92 555.0 90.5Q560 89 566 87Q527 73 466.5 64.0Q406 55 328 55Q251 55 190.5 64.0Q130 73 91 87Q102 91 114.0 94.5Q126 98 139 101ZM544 121Q542 122 539.5 122.5Q537 123 535 124Q548 126 560.0 128.5Q572 131 583 135Q584 135 584.0 135.0Q584 135 584 134Q576 131 566.0 127.5Q556 124 544 121ZM270 236Q219 234 172.0 226.0Q125 218 88 206Q79 210 71.5 214.5Q64 219 58 223Q80 234 118.0 243.5Q156 253 209 257Q224 251 239.0 246.0Q254 241 270 236ZM31 87Q30 87 29.5 86.5Q29 86 28 86Q29 86 29.0 86.5Q29 87 29 88Q30 88 30.0 87.5Q30 87 31 87ZM57 72Q104 50 178.0 39.0Q252 28 328 28Q405 28 479.0 39.0Q553 50 600 72Q601 71 602.5 70.5Q604 70 605 69Q596 63 581.5 56.5Q567 50 548 44Q505 30 449.0 21.5Q393 13 331 11Q323 11 315.5 11.0Q308 11 301 11Q198 11 131.5 27.0Q65 43 41 62Q44 64 48.0 67.0Q52 70 57 72ZM569 277Q567 278 565.0 279.0Q563 280 561 280Q536 291 506.5 299.5Q477 308 444 315Q423 323 402.0 332.5Q381 342 360 353Q328 369 298.5 386.5Q269 404 243 423Q273 419 304.0 413.5Q335 408 367 400Q427 385 480.0 364.5Q533 344 572 321Q596 307 610.5 295.0Q625 283 632 273Q629 272 625.0 272.0Q621 272 617 272Q607 272 594.5 273.5Q582 275 569 277ZM627 340Q617 351 606.5 364.5Q596 378 585 395Q592 389 599.5 382.5Q607 376 613 370Q625 359 633.5 349.5Q642 340 648 331Q643 333 637.5 335.5Q632 338 627 340ZM566 373Q536 392 503.5 416.5Q471 441 439 470Q429 479 418.5 489.0Q408 499 398 509Q406 505 414.0 501.0Q422 497 431 493Q457 479 481.5 465.0Q506 451 528 436Q538 418 547.5 402.5Q557 387 566 373ZM657 285Q658 284 659.0 284.0Q660 284 661 283Q660 283 659.5 282.5Q659 282 659 282Q658 282 657.5 283.0Q657 284 657 285ZM695 321Q693 321 690.5 321.0Q688 321 685 322Q678 337 665.0 354.0Q652 371 632 390Q615 406 594.0 422.0Q573 438 549 454Q537 477 525.0 503.5Q513 530 502 559Q493 581 485.5 602.5Q478 624 472 645Q490 631 508.0 616.5Q526 602 544 586Q580 553 611.5 519.0Q643 485 667 453Q675 426 684.5 401.5Q694 377 704 358Q703 345 701.0 336.0Q699 327 696 321Q696 321 695.5 321.0Q695 321 695 321ZM692 465Q686 485 680.0 508.0Q674 531 668 557Q676 532 682.5 508.5Q689 485 694 462Q693 463 692.5 464.0Q692 465 692 465ZM294 635Q269 675 265.0 698.0Q261 721 267 728Q270 731 275.0 733.0Q280 735 288 735Q313 735 352.5 717.0Q392 699 438 669Q445 639 455.0 608.5Q465 578 476 549Q483 531 490.5 514.5Q498 498 505 482Q490 491 474.5 499.5Q459 508 443 517Q420 528 397.0 538.5Q374 549 352 558Q335 578 320.0 597.0Q305 616 294 635ZM127 559Q131 566 143.0 570.0Q155 574 173 574Q203 574 245.5 563.5Q288 553 336 535Q355 514 376.5 492.0Q398 470 421 449Q441 432 461.0 416.0Q481 400 500 385Q471 397 439.0 407.0Q407 417 373 426Q329 437 285.5 444.0Q242 451 203 453Q196 459 189.5 464.5Q183 470 177 476Q142 508 132.5 529.0Q123 550 127 559ZM56 397Q59 407 84.5 417.0Q110 427 166 427Q173 427 179.5 427.0Q186 427 193 427Q224 402 262.5 377.5Q301 353 344 331Q343 331 342.0 331.0Q341 331 340 331Q312 334 284.5 335.5Q257 337 231 337Q202 337 173.5 335.0Q145 333 119 329Q85 349 69.0 367.0Q53 385 56 397ZM114 301Q124 295 135.5 289.5Q147 284 159 278Q122 272 90.0 263.0Q58 254 36 241Q33 246 31.0 250.5Q29 255 29 259Q31 270 52.5 281.5Q74 293 114 301ZM328 -37Q261 -37 207.0 -30.0Q153 -23 114.0 -12.0Q75 -1 53.0 12.5Q31 26 28 38Q66 10 143.0 -3.0Q220 -16 301 -16Q308 -16 316.0 -16.0Q324 -16 331 -15Q395 -14 453.0 -5.0Q511 4 556 18Q579 25 596.5 33.5Q614 42 626 51Q628 48 628.5 46.0Q629 44 629 41Q629 29 608.5 15.0Q588 1 549.0 -10.5Q510 -22 454.0 -29.5Q398 -37 328 -37ZM631 240Q629 241 627.5 242.5Q626 244 625 245Q628 245 631.0 245.5Q634 246 637 246Q636 245 634.5 243.5Q633 242 631 240ZM751 340Q750 340 749.0 340.5Q748 341 747 342Q747 354 742.5 369.5Q738 385 730 403Q730 404 729.5 404.5Q729 405 729 406Q725 453 710.5 509.5Q696 566 672 626Q666 642 659.5 657.5Q653 673 646 687Q632 800 637.0 864.0Q642 928 652 933Q664 931 694.5 857.0Q725 783 748 644Q753 614 756.5 586.5Q760 559 762 534Q760 497 760.0 457.0Q760 417 764 383Q761 364 757.5 353.0Q754 342 751 340ZM902 252Q901 251 899.0 249.5Q897 248 896 246Q894 248 892.5 249.5Q891 251 890 253Q893 252 896.0 252.0Q899 252 902 252ZM1198 -30Q1129 -30 1073.0 -22.5Q1017 -15 978.0 -3.5Q939 8 918.5 21.5Q898 35 898 48Q898 51 899.5 55.0Q901 59 905 62Q926 48 957.5 36.0Q989 24 1027.0 14.5Q1065 5 1107.5 -0.5Q1150 -6 1193 -9Q1208 -10 1223.0 -10.5Q1238 -11 1253 -11Q1253 -11 1253.0 -11.0Q1253 -11 1253 -11Q1324 -11 1389.5 0.0Q1455 11 1492 33Q1471 10 1394.5 -10.0Q1318 -30 1198 -30Z" fill="black" transform="scale(1,-1) translate(0, -896)" /></svg>