<?xml version="1.0" encoding="utf-8" ?>
<svg baseProfile="full" height="1024" version="1.1" viewBox="0 -64 1125 1024" width="1125" xmlns="http://www.w3.org/2000/svg" xmlns:ev="http://www.w3.org/2001/xml-events" xmlns:xlink="http://www.w3.org/1999/xlink"><defs /><path d="M149 544Q149 535 142.5 528.5Q136 522 127 522Q118 522 111.5 528.5Q105 535 105 544Q105 554 111.5 560.5Q118 567 127 567Q136 567 142.5 560.5Q149 554 149 544ZM295 551Q295 542 288.5 535.5Q282 529 273 529Q264 529 257.5 535.5Q251 542 251 551Q251 560 257.5 566.5Q264 573 273 573Q282 573 288.5 566.5Q295 560 295 551ZM918 563Q906 647 866.0 719.5Q826 792 765.0 845.5Q704 899 626.5 929.5Q549 960 461 960Q366 960 282.0 923.5Q198 887 135.5 824.5Q73 762 36.5 678.0Q0 594 0 499Q0 403 36.5 319.0Q73 235 135.5 172.5Q198 110 282.0 73.5Q366 37 461 37Q486 37 509.5 39.5Q533 42 556 47Q601 -4 664.5 -34.0Q728 -64 800 -64Q868 -64 927.0 -38.5Q986 -13 1030.0 31.0Q1074 75 1099.5 134.5Q1125 194 1125 261Q1125 312 1110.0 359.0Q1095 406 1067.5 445.5Q1040 485 1002.0 515.0Q964 545 918 563ZM461 70Q373 70 295.0 104.0Q217 138 159.0 196.0Q101 254 67.0 332.0Q33 410 33 499Q33 587 67.0 665.0Q101 743 159.0 801.0Q217 859 295.0 893.0Q373 927 461 927Q540 927 610.5 900.0Q681 873 737.0 825.5Q793 778 831.0 714.0Q869 650 883 575Q863 580 842.5 582.5Q822 585 800 585Q733 585 674.0 559.5Q615 534 571.0 490.0Q527 446 501.5 387.0Q476 328 476 261Q476 209 491.0 162.5Q506 116 533 77Q516 74 498.0 72.0Q480 70 461 70ZM800 -31Q740 -31 686.5 -7.5Q633 16 593 56Q586 63 580.0 70.0Q574 77 569 84Q541 121 525.0 166.0Q509 211 509 261Q509 321 532.0 374.0Q555 427 594.5 466.5Q634 506 687.0 529.0Q740 552 800 552Q823 552 845.0 548.5Q867 545 888 539Q897 536 905.5 532.5Q914 529 922 526Q960 508 991.0 481.0Q1022 454 1044.5 420.0Q1067 386 1079.5 345.5Q1092 305 1092 261Q1092 200 1069.0 147.0Q1046 94 1006.5 54.5Q967 15 914.0 -8.0Q861 -31 800 -31ZM198 786Q192 786 185.0 785.5Q178 785 171 784Q162 776 153.5 766.5Q145 757 137 747Q152 751 167.5 753.0Q183 755 198 755Q251 755 298.0 734.5Q345 714 379.5 679.5Q414 645 434.5 598.5Q455 552 455 499Q455 446 434.5 399.0Q414 352 379.5 317.5Q345 283 298.0 262.5Q251 242 198 242Q182 242 166.5 244.0Q151 246 136 250Q144 240 152.5 231.0Q161 222 170 213Q177 212 184.0 212.0Q191 212 198 212Q258 212 310.0 234.5Q362 257 401.0 296.0Q440 335 463.0 387.0Q486 439 486 499Q486 558 463.0 610.0Q440 662 401.0 701.0Q362 740 310.0 763.0Q258 786 198 786Z" fill="black" transform="scale(1,-1) translate(0, -896)" /></svg>