<?xml version="1.0" encoding="utf-8" ?>
<svg baseProfile="full" height="1024" version="1.1" viewBox="0 -64 1340 1024" width="1340" xmlns="http://www.w3.org/2000/svg" xmlns:ev="http://www.w3.org/2001/xml-events" xmlns:xlink="http://www.w3.org/1999/xlink"><defs /><path d="M696 400Q696 388 687.5 379.5Q679 371 668 371Q656 371 647.5 379.5Q639 388 639 400Q639 411 647.5 419.5Q656 428 668 428Q679 428 687.5 419.5Q696 411 696 400ZM127 189H1214Q1227 189 1236.0 201.0Q1245 213 1245 226V302Q1245 315 1236.0 321.5Q1227 328 1214 328H876Q898 366 910.0 399.5Q922 433 922 472Q922 521 903.0 565.0Q884 609 851.5 642.0Q819 675 775.0 694.5Q731 714 681 714Q631 714 587.5 694.5Q544 675 511.0 642.0Q478 609 459.0 565.0Q440 521 440 471Q440 432 452.0 399.0Q464 366 486 328H127Q114 328 104.5 321.5Q95 315 95 302V226Q95 213 104.5 201.0Q114 189 127 189ZM478 472Q478 514 494.0 551.0Q510 588 537.5 615.5Q565 643 602.0 659.5Q639 676 681 676Q723 676 760.0 659.5Q797 643 824.5 615.0Q852 587 868.0 550.0Q884 513 884 471Q884 431 869.0 393.5Q854 356 827 328H536Q508 356 493.0 394.0Q478 432 478 472ZM133 290H1207V227H133V290ZM1340 938Q1340 945 1339.5 952.5Q1339 960 1332 960H28Q21 960 10.5 952.5Q0 945 0 938V98Q0 91 10.5 83.0Q21 75 28 75H657V-26H487Q479 -26 473.5 -31.5Q468 -37 468 -45Q468 -53 473.5 -58.5Q479 -64 487 -64H866Q874 -64 879.5 -58.5Q885 -53 885 -45Q885 -37 879.5 -31.5Q874 -26 866 -26H695V75H1332Q1339 75 1339.5 83.0Q1340 91 1340 98ZM1302 113H684Q684 113 683.0 113.0Q682 113 682 113Q681 113 680.5 113.0Q680 113 679 113H38V922H1302V113Z" fill="black" transform="scale(1,-1) translate(0, -896)" /></svg>