<?xml version="1.0" encoding="utf-8" ?>
<svg baseProfile="full" height="1024" version="1.1" viewBox="0 -64 924 1024" width="924" xmlns="http://www.w3.org/2000/svg" xmlns:ev="http://www.w3.org/2001/xml-events" xmlns:xlink="http://www.w3.org/1999/xlink"><defs /><path d="M921 869Q918 871 915.5 873.0Q913 875 909 875L187 960Q180 961 174.5 956.5Q169 952 168 945L153 818H17Q10 818 5.0 813.0Q0 808 0 801V-47Q0 -54 5.0 -59.0Q10 -64 17 -64H745Q752 -64 757.0 -59.0Q762 -54 762 -47V4L806 -1Q807 -1 807.5 -1.0Q808 -1 808 -1Q815 -1 820.0 3.5Q825 8 825 14L924 856Q924 860 923.5 863.0Q923 866 921 869ZM727 -30H34V784H149L69 103Q69 100 69.5 96.5Q70 93 72 90Q75 88 77.5 86.0Q80 84 84 84L727 8V-30ZM793 35 105 116 183 784 187 818 200 924 888 843 793 35ZM242 753 804 687Q805 687 805.5 687.0Q806 687 806 687Q813 687 817.5 691.0Q822 695 823 702Q824 709 819.5 714.5Q815 720 808 721L246 787Q239 787 233.5 783.0Q228 779 227 772Q227 765 231.0 759.5Q235 754 242 753ZM202 510Q204 507 207.0 505.5Q210 504 213 503L465 474Q465 474 465.5 474.0Q466 474 467 474Q473 474 478.0 478.0Q483 482 484 489L502 645Q503 652 498.5 657.5Q494 663 487 664L235 693Q232 694 228.5 693.0Q225 692 223 690Q220 687 218.5 684.5Q217 682 216 678L198 522Q198 519 199.0 515.5Q200 512 202 510ZM248 657 466 632 452 510 234 535 248 657ZM779 629 549 656Q542 657 536.5 652.5Q531 648 530 641Q530 634 534.0 628.5Q538 623 545 622L775 596Q775 595 775.5 595.0Q776 595 777 595Q783 595 788.0 599.5Q793 604 793 610Q794 617 790.0 623.0Q786 629 779 629ZM770 555 540 582Q533 582 527.5 578.0Q522 574 522 567Q521 560 525.0 554.0Q529 548 536 548L766 521Q766 521 766.5 521.0Q767 521 768 521Q774 521 779.0 525.0Q784 529 785 536Q786 543 781.5 548.5Q777 554 770 555ZM761 479 532 506Q525 507 519.5 502.5Q514 498 513 491Q512 484 516.5 478.5Q521 473 528 472L757 445Q757 445 757.5 445.0Q758 445 759 445Q765 445 770.0 449.5Q775 454 776 460Q777 467 772.5 472.5Q768 478 761 479ZM270 428 214 435Q207 435 201.5 431.0Q196 427 195 420Q194 413 198.5 407.5Q203 402 210 401L266 394Q267 394 267.5 394.0Q268 394 268 394Q274 394 279.0 398.5Q284 403 285 409Q286 416 281.5 421.5Q277 427 270 428ZM260 345 204 352Q197 353 191.5 348.5Q186 344 185 337Q184 330 188.5 324.5Q193 319 200 318L256 311Q257 311 257.5 311.0Q258 311 258 311Q265 311 269.5 315.5Q274 320 275 326Q276 333 271.5 339.0Q267 345 260 345ZM250 257 194 264Q186 264 180.5 260.0Q175 256 175 249Q174 242 178.5 236.5Q183 231 190 230L246 223Q246 223 246.5 223.0Q247 223 248 223Q254 223 259.0 227.5Q264 232 265 238Q266 245 261.5 250.5Q257 256 250 257ZM744 372 338 420Q331 421 325.5 416.5Q320 412 319 405Q318 398 322.5 392.5Q327 387 334 386L740 339Q740 339 740.5 339.0Q741 339 742 339Q748 339 753.0 343.0Q758 347 759 354Q759 361 755.0 366.5Q751 372 744 372ZM734 290 328 337Q321 338 315.5 333.5Q310 329 309 322Q308 315 312.5 309.5Q317 304 324 304L730 256Q730 256 730.5 256.0Q731 256 732 256Q738 256 743.0 260.0Q748 264 749 271Q750 278 745.5 283.5Q741 289 734 290ZM724 201 318 249Q311 250 305.0 245.5Q299 241 299 234Q298 227 302.5 221.5Q307 216 314 215L720 168Q720 168 720.5 167.5Q721 167 722 167Q728 167 733.0 171.5Q738 176 738 182Q739 190 735.0 195.5Q731 201 724 201Z" fill="black" transform="scale(1,-1) translate(0, -896)" /></svg>