<?xml version="1.0" encoding="utf-8" ?>
<svg baseProfile="full" height="1024" version="1.1" viewBox="14 -64 895 1024" width="895" xmlns="http://www.w3.org/2000/svg" xmlns:ev="http://www.w3.org/2001/xml-events" xmlns:xlink="http://www.w3.org/1999/xlink"><defs /><path d="M821 446Q829 455 836.5 463.5Q844 472 851 481Q902 545 917.0 600.5Q932 656 909 697Q891 730 851.0 747.0Q811 764 753 764Q727 764 699.5 760.5Q672 757 643 751Q614 846 568.0 902.5Q522 959 466 960Q410 960 363.0 903.0Q316 846 286 750Q255 757 226.0 760.5Q197 764 170 764Q112 764 72.0 747.0Q32 730 14 697Q-9 656 6.0 600.5Q21 545 72 481Q79 472 86.5 463.5Q94 455 102 446Q94 437 86.5 428.5Q79 420 72 411Q21 347 6.0 291.0Q-9 235 14 194Q32 161 72.0 143.5Q112 126 170 126Q170 126 170.0 126.0Q170 126 170 126Q196 126 224.0 129.0Q252 132 282 139Q285 127 289.0 115.5Q293 104 298 93Q328 17 368.5 -23.5Q409 -64 456 -64Q456 -64 456.5 -64.0Q457 -64 457 -64Q512 -64 559.0 -8.0Q606 48 637 142Q668 136 697.0 132.5Q726 129 753 129Q811 129 851.0 146.0Q891 163 909 195Q932 236 917.0 292.0Q902 348 851 411Q844 420 836.5 429.0Q829 438 821 446ZM551 281Q530 270 509.5 259.0Q489 248 468 239Q444 249 420.0 261.0Q396 273 372 286Q348 300 325.5 314.0Q303 328 282 342Q280 368 279.0 394.5Q278 421 278 448Q279 475 280.0 501.0Q281 527 284 552Q305 566 327.0 579.5Q349 593 372 606Q394 619 416.5 630.0Q439 641 462 651Q484 641 506.5 630.0Q529 619 551 606Q575 592 598.5 577.5Q622 563 644 548Q646 523 647.0 497.0Q648 471 647 444Q647 416 645.5 389.5Q644 363 641 338Q620 323 597.5 309.0Q575 295 551 281ZM635 292Q630 264 624.0 237.5Q618 211 611 187Q587 194 561.0 202.5Q535 211 509 221Q524 228 539.0 236.0Q554 244 569 253Q586 262 602.5 272.0Q619 282 635 292ZM423 218Q393 206 364.5 196.0Q336 186 309 178Q301 205 296.0 234.5Q291 264 287 294Q303 284 320.0 274.0Q337 264 354 254Q371 244 388.0 235.5Q405 227 423 218ZM243 370Q218 389 196.0 408.0Q174 427 154 446Q174 466 196.5 485.5Q219 505 244 523Q243 505 242.0 486.5Q241 468 241 450Q241 429 241.5 409.5Q242 390 243 370ZM290 600Q294 628 299.5 654.5Q305 681 311 706Q337 699 363.0 690.0Q389 681 416 671Q400 663 384.5 655.0Q369 647 354 638Q337 629 321.0 619.5Q305 610 290 600ZM508 671Q536 682 564.0 691.5Q592 701 619 707Q625 682 630.5 654.0Q636 626 639 596Q622 607 604.5 617.5Q587 628 569 639Q554 647 538.5 655.0Q523 663 508 671ZM680 522Q705 503 728.0 484.0Q751 465 771 445Q750 424 727.0 404.0Q704 384 678 365Q680 384 681.0 404.5Q682 425 682 446Q682 465 681.5 484.0Q681 503 680 522ZM753 727Q800 727 832.0 714.0Q864 701 877 678Q894 648 879.5 601.5Q865 555 822 502Q816 494 809.5 486.5Q803 479 796 472Q770 497 740.0 522.0Q710 547 677 571Q673 610 667.0 646.0Q661 682 653 715Q680 721 705.0 724.0Q730 727 753 727ZM467 922Q506 922 544.0 874.5Q582 827 608 743Q573 734 536.5 721.0Q500 708 462 692Q426 708 391.0 720.5Q356 733 322 742Q350 827 388.5 874.5Q427 922 467 922ZM46 679Q59 702 91.0 714.5Q123 727 170 727Q194 727 220.5 723.5Q247 720 275 714Q266 682 259.5 646.0Q253 610 249 572Q215 548 184.5 523.0Q154 498 128 473Q121 481 114.0 488.5Q107 496 101 504Q58 558 43.5 603.5Q29 649 46 679ZM170 156Q123 156 91.0 170.5Q59 185 46 209Q29 238 43.5 286.5Q58 335 101 388Q107 396 114.0 404.0Q121 412 128 420Q154 394 183.5 369.5Q213 345 246 322Q250 281 257.0 242.5Q264 204 273 169Q245 162 219.5 159.0Q194 156 170 156ZM462 -30V-48L459 -30Q425 -30 391.0 5.5Q357 41 332 105Q328 115 324.5 125.5Q321 136 317 147Q352 157 389.0 170.0Q426 183 463 200Q498 184 532.5 172.0Q567 160 600 151Q570 66 532.0 18.0Q494 -30 462 -30ZM877 214Q864 190 832.0 178.0Q800 166 753 166Q729 166 702.5 169.0Q676 172 647 178Q656 210 662.5 245.5Q669 281 674 319Q708 343 738.5 368.0Q769 393 795 419Q802 412 809.0 404.0Q816 396 822 388Q865 335 879.5 289.0Q894 243 877 214ZM464 550Q422 550 391.5 519.5Q361 489 361 446Q361 404 391.5 373.5Q422 343 464 343Q507 343 537.5 373.5Q568 404 568 446Q568 489 537.5 519.5Q507 550 464 550ZM464 380Q437 380 417.5 399.5Q398 419 398 446Q398 474 417.5 493.0Q437 512 464 512Q492 512 511.0 493.0Q530 474 530 446Q530 419 511.0 399.5Q492 380 464 380Z" fill="black" transform="scale(1,-1) translate(0, -896)" /></svg>