<?xml version="1.0" encoding="utf-8" ?>
<svg baseProfile="full" height="1024" version="1.1" viewBox="0 -64 1207 1024" width="1207" xmlns="http://www.w3.org/2000/svg" xmlns:ev="http://www.w3.org/2001/xml-events" xmlns:xlink="http://www.w3.org/1999/xlink"><defs /><path d="M689 726Q689 716 681.0 708.0Q673 700 661 700Q649 700 641.0 708.0Q633 716 633 726Q633 737 641.0 745.0Q649 753 661 753Q673 753 681.0 745.0Q689 737 689 726ZM382 726Q382 716 373.5 708.0Q365 700 354 700Q342 700 334.0 708.0Q326 716 326 726Q326 737 334.0 745.0Q342 753 354 753Q365 753 373.5 745.0Q382 737 382 726ZM518 753Q518 742 509.5 734.0Q501 726 490 726Q478 726 470.0 734.0Q462 742 462 753Q462 763 470.0 771.0Q478 779 490 779Q501 779 509.5 771.0Q518 763 518 753ZM1207 392Q1207 399 1203.0 404.0Q1199 409 1193 410Q1176 415 1159.0 419.5Q1142 424 1125 428Q1155 470 1171.5 520.0Q1188 570 1188 625Q1188 694 1162.0 755.0Q1136 816 1090.5 861.5Q1045 907 983.5 933.5Q922 960 853 960Q776 960 709.5 927.5Q643 895 597 840Q551 889 488.0 917.0Q425 945 354 945Q284 945 223.0 918.5Q162 892 116.5 846.5Q71 801 45.0 740.0Q19 679 19 610Q19 560 33.0 514.0Q47 468 72 428Q45 421 29.5 416.0Q14 411 12 410Q7 408 3.5 403.0Q0 398 0 392V37Q0 36 0.0 34.5Q0 33 1 32Q0 31 0.0 29.5Q0 28 0 26V-35Q0 -47 8.5 -55.5Q17 -64 29 -64H88Q100 -64 108.5 -55.5Q117 -47 117 -35V18H1090V-35Q1090 -47 1098.5 -55.5Q1107 -64 1119 -64H1178Q1190 -64 1198.5 -55.5Q1207 -47 1207 -35V26Q1207 28 1207.0 29.5Q1207 31 1206 32Q1207 33 1207.0 34.5Q1207 36 1207 37V392ZM599 783Q603 791 608.5 798.5Q614 806 620 813Q661 864 722.0 894.5Q783 925 853 925Q915 925 969.5 901.0Q1024 877 1065.0 836.5Q1106 796 1129.5 741.5Q1153 687 1153 625Q1153 572 1135.5 524.0Q1118 476 1087 437Q1026 451 964.5 461.5Q903 472 841.0 479.5Q779 487 717.0 490.5Q655 494 592 494Q590 494 588.0 494.0Q586 494 584 494Q569 523 561.0 556.0Q553 589 553 625Q553 668 565.0 708.0Q577 748 599 783ZM54 610Q54 672 77.5 726.5Q101 781 142.0 822.0Q183 863 237.5 886.5Q292 910 354 910Q419 910 476.5 883.5Q534 857 575 812Q548 772 533.0 724.5Q518 677 518 625Q518 590 525.0 556.5Q532 523 545 493Q472 491 407.5 485.5Q343 480 288.0 472.0Q233 464 188.0 455.0Q143 446 108 438Q83 474 68.5 518.0Q54 562 54 610ZM80 -27H37V18H80ZM1170 -27H1127V18H1170ZM1170 55H37V317H1170ZM1170 354H37V379Q46 382 61.0 386.5Q76 391 96 396Q105 398 114.5 400.5Q124 403 135 406Q170 414 215.0 422.5Q260 431 314.5 438.0Q369 445 431.5 450.0Q494 455 564 456Q571 456 578.0 456.0Q585 456 592 456Q595 456 598.5 456.0Q602 456 605 456Q662 456 719.0 452.5Q776 449 833.0 443.0Q890 437 946.0 427.5Q1002 418 1058 406Q1068 404 1078.0 401.5Q1088 399 1099 397Q1116 392 1134.0 387.5Q1152 383 1170 378Z" fill="black" transform="scale(1,-1) translate(0, -896)" /></svg>