<?xml version="1.0" encoding="utf-8" ?>
<svg baseProfile="full" height="1024" version="1.1" viewBox="0 -64 1081 1024" width="1081" xmlns="http://www.w3.org/2000/svg" xmlns:ev="http://www.w3.org/2001/xml-events" xmlns:xlink="http://www.w3.org/1999/xlink"><defs /><path d="M513 53Q470 53 442.5 66.0Q415 79 413 80Q407 84 405.5 91.0Q404 98 408 104Q412 110 418.5 111.5Q425 113 431 109Q434 107 482.0 90.5Q530 74 595 109Q601 113 608.0 111.0Q615 109 618 103Q622 96 620.0 89.5Q618 83 611 79Q585 65 560.0 59.0Q535 53 513 53ZM760 286Q717 286 689.5 298.5Q662 311 660 313Q654 316 652.5 323.0Q651 330 655 336Q659 342 666.0 343.5Q673 345 679 342Q681 340 729.0 323.0Q777 306 842 342Q849 346 855.5 344.0Q862 342 866 335Q869 329 867.0 322.0Q865 315 859 312Q832 297 807.0 291.5Q782 286 760 286ZM778 794Q729 794 684.0 778.5Q639 763 602 737Q588 786 559.5 827.0Q531 868 492.0 897.5Q453 927 405.5 943.5Q358 960 307 960Q243 960 187.5 936.0Q132 912 90.0 870.0Q48 828 24.0 772.5Q0 717 0 653Q0 599 17.5 550.0Q35 501 67.0 461.5Q99 422 142.5 394.0Q186 366 239 355Q228 328 222.0 298.5Q216 269 216 239Q216 176 239.5 121.0Q263 66 304.0 25.0Q345 -16 400.5 -40.0Q456 -64 518 -64Q575 -64 625.5 -44.5Q676 -25 715.5 9.5Q755 44 781.5 90.5Q808 137 817 191Q873 198 921.0 224.0Q969 250 1004.5 290.0Q1040 330 1060.5 381.5Q1081 433 1081 491Q1081 553 1057.0 608.5Q1033 664 992.0 705.0Q951 746 896.0 770.0Q841 794 778 794ZM34 653Q34 710 55.5 759.5Q77 809 114.0 846.0Q151 883 200.5 904.5Q250 926 307 926Q354 926 398.0 910.0Q442 894 477.0 865.5Q512 837 537.0 798.0Q562 759 573 713Q536 679 511.5 634.5Q487 590 479 539Q444 534 412.0 522.0Q380 510 351 491Q295 470 255.5 485.0Q216 500 213 502Q207 505 200.0 503.5Q193 502 190 496Q186 490 187.5 483.0Q189 476 195 473Q197 471 224.0 458.5Q251 446 294 446Q295 446 296.5 446.0Q298 446 299 446Q286 433 274.5 418.0Q263 403 254 386Q206 396 165.5 420.0Q125 444 96.0 479.5Q67 515 50.5 559.5Q34 604 34 653ZM518 -30Q463 -30 414.0 -8.5Q365 13 328.5 49.0Q292 85 271.0 134.0Q250 183 250 239Q250 289 267.5 333.5Q285 378 315.0 413.5Q345 449 386.5 472.5Q428 496 476 504Q476 500 475.5 497.0Q475 494 475 491Q475 476 476.5 462.0Q478 448 481 434Q483 424 485.0 415.0Q487 406 490 397Q505 352 533.0 313.5Q561 275 598.5 247.0Q636 219 682.0 203.5Q728 188 778 188Q779 188 780.0 188.0Q781 188 782 188Q773 142 749.0 102.0Q725 62 690.0 33.0Q655 4 611.0 -13.0Q567 -30 518 -30ZM778 222Q722 222 673.5 243.5Q625 265 588.5 301.5Q552 338 531.0 386.5Q510 435 510 491Q510 546 531.0 595.0Q552 644 588.5 680.5Q625 717 673.5 738.0Q722 759 778 759Q833 759 882.0 738.0Q931 717 967.5 680.5Q1004 644 1025.0 595.0Q1046 546 1046 491Q1046 435 1025.0 386.5Q1004 338 967.5 301.5Q931 265 882.0 243.5Q833 222 778 222Z" fill="black" transform="scale(1,-1) translate(0, -896)" /></svg>