<?xml version="1.0" encoding="utf-8" ?>
<svg baseProfile="full" height="1022" version="1.1" viewBox="2 -64 868 1022" width="868" xmlns="http://www.w3.org/2000/svg" xmlns:ev="http://www.w3.org/2001/xml-events" xmlns:xlink="http://www.w3.org/1999/xlink"><defs /><path d="M868 -39 709 171Q708 181 705.5 209.5Q703 238 701.0 273.0Q699 308 698.0 341.5Q697 375 699 395Q702 425 696.0 461.0Q690 497 682 527Q682 528 682.0 529.0Q682 530 681 531Q680 535 669.5 581.5Q659 628 644.0 688.0Q629 748 612.0 808.5Q595 869 580 900Q571 920 559.5 931.5Q548 943 534 945Q526 947 519.5 945.5Q513 944 507 941Q500 950 489.0 956.5Q478 963 463 958Q455 956 449.0 951.0Q443 946 439 938Q438 936 437.0 933.5Q436 931 436 928Q435 931 434.0 933.5Q433 936 432 938Q428 946 422.0 951.0Q416 956 408 958Q394 963 382.5 956.5Q371 950 364 941Q358 944 351.5 945.5Q345 947 337 945Q323 943 311.5 931.5Q300 920 291 900Q276 869 259.0 808.5Q242 748 227.0 688.0Q212 628 201.5 581.5Q191 535 190 531Q190 530 189.5 529.0Q189 528 190 527Q181 497 175.0 461.0Q169 425 172 395Q175 375 174.0 341.5Q173 308 170.5 273.0Q168 238 165.5 209.5Q163 181 162 171L3 -39Q0 -42 0.0 -46.5Q0 -51 2 -55Q3 -59 7.0 -61.5Q11 -64 15 -64H345Q348 -64 351.5 -62.0Q355 -60 357 -58L388 -18Q391 -13 391.0 -8.0Q391 -3 387 1L327 67Q349 79 382.5 109.5Q416 140 436 198Q455 140 489.0 109.5Q523 79 545 67L484 1Q480 -3 480.0 -8.0Q480 -13 483 -18L515 -58Q517 -60 520.0 -62.0Q523 -64 526 -64H856Q861 -64 864.5 -61.5Q868 -59 870 -55Q871 -51 871.0 -46.5Q871 -42 868 -39ZM529 916Q535 915 541.5 908.0Q548 901 553 888Q561 871 570.5 843.0Q580 815 589 782Q575 808 554.0 851.0Q533 894 522 915Q524 916 525.5 916.5Q527 917 529 916ZM431 865Q432 866 433.0 870.5Q434 875 436 882Q437 875 438.5 870.5Q440 866 440 865L483 695V570Q483 530 477.5 507.0Q472 484 472 484Q459 456 450.0 433.5Q441 411 436 393Q430 411 421.0 433.5Q412 456 399 484Q399 484 394.0 507.0Q389 530 389 570V695L431 865ZM318 888Q323 901 329.5 908.0Q336 915 342 916Q344 917 345.5 916.5Q347 916 349 915Q339 894 317.5 851.0Q296 808 282 782Q292 815 301.0 843.0Q310 871 318 888ZM297 86Q293 85 290.5 82.0Q288 79 287 76Q286 72 287.0 68.5Q288 65 291 63L357 -8L338 -30H44L188 158Q190 159 190.5 160.5Q191 162 191 164Q192 166 194.5 194.5Q197 223 199.5 260.5Q202 298 203.0 336.5Q204 375 202 398Q197 440 211.5 495.0Q226 550 237 575Q242 586 250.0 609.5Q258 633 267 660Q276 688 285.0 715.0Q294 742 299 751Q309 769 344.0 839.5Q379 910 382 914Q383 918 388.5 925.0Q394 932 399 930Q401 930 402.5 928.5Q404 927 405 925Q410 916 407.5 900.0Q405 884 402 874L365 734Q361 737 355.0 738.5Q349 740 342 740Q319 740 308.5 723.0Q298 706 296 694L236 461Q235 455 238.0 449.5Q241 444 247 443Q253 441 258.0 444.0Q263 447 265 453L325 688Q325 689 328.5 700.0Q332 711 342 711Q351 711 353.5 704.0Q356 697 356 696Q356 696 356.0 695.5Q356 695 356 695V570Q356 525 363.0 499.0Q370 473 370 472Q405 402 411.5 365.5Q418 329 418 328Q425 256 407.5 209.0Q390 162 366.5 135.0Q343 108 321.0 97.5Q299 87 297 86ZM533 -30 514 -8 580 63Q583 65 584.0 68.5Q585 72 584 76Q583 79 580.5 82.0Q578 85 574 86Q572 87 550.5 97.5Q529 108 505.0 135.0Q481 162 463.5 209.0Q446 256 453 328Q453 329 460.0 365.5Q467 402 501 472Q501 473 508.0 499.0Q515 525 515 570V695Q515 695 515.0 695.5Q515 696 515 696Q515 697 517.5 704.0Q520 711 529 711Q539 711 542.5 700.0Q546 689 547 688L606 453Q608 447 613.0 444.0Q618 441 624 443Q630 444 633.0 449.5Q636 455 635 461L575 694Q573 706 562.5 723.0Q552 740 529 740Q522 740 516.0 738.5Q510 737 506 734L469 874Q466 884 463.5 900.0Q461 916 466 925Q467 927 468.5 928.5Q470 930 472 930Q477 932 482.5 925.0Q488 918 490 914Q492 910 527.0 839.5Q562 769 572 751Q577 742 586.0 715.0Q595 688 604 660Q613 633 621.0 609.5Q629 586 634 575Q645 550 659.5 495.0Q674 440 669 398Q667 375 668.5 336.5Q670 298 672.0 260.5Q674 223 677.0 194.5Q680 166 680 164Q680 162 681.0 160.5Q682 159 683 158L827 -30H533Z" fill="black" transform="scale(1,-1) translate(0, -894)" /></svg>