<?xml version="1.0" encoding="utf-8" ?>
<svg baseProfile="full" height="1024" version="1.1" viewBox="0 -64 1024 1024" width="1024" xmlns="http://www.w3.org/2000/svg" xmlns:ev="http://www.w3.org/2001/xml-events" xmlns:xlink="http://www.w3.org/1999/xlink"><defs /><path d="M606 951Q605 952 604.5 952.5Q604 953 604 953L603 952Q581 956 558.0 958.0Q535 960 512 960Q406 960 313.0 919.5Q220 879 150.5 809.5Q81 740 40.5 647.0Q0 554 0 448Q0 342 40.5 249.0Q81 156 150.5 86.5Q220 17 313.0 -23.5Q406 -64 512 -64Q618 -64 711.0 -23.5Q804 17 873.5 86.5Q943 156 983.5 249.0Q1024 342 1024 448Q1024 542 992.0 626.0Q960 710 904.0 777.0Q848 844 771.5 889.5Q695 935 606 951ZM952 607Q920 551 881.0 506.5Q842 462 798 427Q789 461 776.5 491.5Q764 522 750 550Q767 570 776.0 593.0Q785 616 787 642Q790 710 749.0 777.0Q708 844 667 890Q717 872 761.0 844.0Q805 816 841.5 780.0Q878 744 906.5 700.0Q935 656 952 607ZM594 909Q610 894 636.5 865.0Q663 836 688.5 800.0Q714 764 732.0 723.5Q750 683 748 644Q747 629 742.0 614.5Q737 600 729 588Q689 655 639.0 705.5Q589 756 538.0 792.5Q487 829 440.5 853.0Q394 877 360 891Q396 903 434.0 909.5Q472 916 512 916Q533 916 553.5 914.5Q574 913 594 909ZM306 869Q330 861 378.0 841.5Q426 822 483.0 785.5Q540 749 599.0 693.5Q658 638 703 559Q700 556 696.0 553.0Q692 550 688 547Q625 503 540.0 515.5Q455 528 372.0 564.5Q289 601 221.0 645.5Q153 690 125 711Q159 761 205.0 801.5Q251 842 306 869ZM104 677Q129 659 179.5 625.0Q230 591 294.5 557.5Q359 524 431.0 499.5Q503 475 572 475Q610 475 645.0 484.0Q680 493 711 515Q713 517 716.0 519.0Q719 521 722 523Q735 496 746.0 465.5Q757 435 765 402Q667 333 557.5 301.5Q448 270 351.0 260.5Q254 251 181.0 256.0Q108 261 81 265Q63 307 53.5 353.0Q44 399 44 448Q44 510 59.5 568.0Q75 626 104 677ZM102 223Q124 220 158.0 218.0Q192 216 234 216Q289 216 355.0 221.5Q421 227 491.5 243.0Q562 259 634.5 287.5Q707 316 774 361Q780 330 783.0 297.0Q786 264 786 229Q786 229 786.0 228.5Q786 228 786 228Q738 203 707.5 170.0Q677 137 660.0 103.5Q643 70 636.0 40.5Q629 11 628 -6Q600 -13 571.0 -16.5Q542 -20 512 -20Q446 -20 384.5 -2.5Q323 15 270.5 47.0Q218 79 175.0 123.5Q132 168 102 223ZM772 59Q748 43 722.0 30.0Q696 17 669 7Q675 39 698.5 91.5Q722 144 785 183Q784 153 780.5 122.0Q777 91 772 59ZM817 93Q821 122 823.0 149.5Q825 177 825 204Q867 222 885.5 222.0Q904 222 909 219Q911 217 913.0 215.0Q915 213 916 211Q896 178 871.0 148.0Q846 118 817 93ZM935 248Q934 249 932.5 250.0Q931 251 930 252Q912 263 886.0 261.5Q860 260 825 246Q824 284 820.0 318.5Q816 353 809 385Q853 419 893.0 461.5Q933 504 967 556Q974 530 977.0 503.0Q980 476 980 448Q980 394 968.5 344.0Q957 294 935 248Z" fill="black" transform="scale(1,-1) translate(0, -896)" /></svg>